<svg width="52" height="14" viewBox="0 0 52 14" fill="none" xmlns="http://www.w3.org/2000/svg">
<path d="M2.71484 5.26644L3.72874 4.45413V6.30438L2.71484 7.11669" fill="#B61F2A"/>
<path d="M2.71484 5.26644L3.72874 4.45413V6.30438L2.71484 7.11669V5.26644Z" fill="#B61F2A"/>
<path d="M2.71484 3.04161L3.72874 2.22479V4.07955L2.71484 4.89186" fill="#B61F2A"/>
<path d="M2.71484 3.04161L3.72874 2.22479V4.07955L2.71484 4.89186V3.04161Z" fill="#B61F2A"/>
<path d="M2.71484 0.812304L3.72874 0V1.85025L2.71484 2.66707" fill="#B61F2A"/>
<path d="M2.71484 0.812304L3.72874 0V1.85025L2.71484 2.66707V0.812304Z" fill="#B61F2A"/>
<path d="M1.34715 7.49126L0.333252 6.67896V8.5292L1.34715 9.34602" fill="#B61F2A"/>
<path d="M1.34715 7.49126L0.333252 6.67896V8.5292L1.34715 9.34602V7.49126Z" fill="#B61F2A"/>
<path d="M1.34715 5.26644L0.333252 4.45413V6.30438L1.34715 7.11669" fill="#B61F2A"/>
<path d="M1.34715 5.26644L0.333252 4.45413V6.30438L1.34715 7.11669V5.26644Z" fill="#B61F2A"/>
<path d="M1.34715 3.04161L0.333252 2.22479V4.07955L1.34715 4.89186" fill="#B61F2A"/>
<path d="M1.34715 3.04161L0.333252 2.22479V4.07955L1.34715 4.89186V3.04161Z" fill="#B61F2A"/>
<path d="M1.34715 0.812304L0.333252 0V1.85025L1.34715 2.66707" fill="#B61F2A"/>
<path d="M1.34715 0.812304L0.333252 0V1.85025L1.34715 2.66707V0.812304Z" fill="#B61F2A"/>
<path d="M9.052 10.4336C9.052 10.3479 9.06118 10.2757 9.04741 10.1944C9.05659 10.1087 9.052 10.0229 9.04282 9.95526L8.41416 9.81085C8.38662 9.65741 8.35909 9.50849 8.32238 9.36859L8.83633 8.98952C8.78585 8.83157 8.72161 8.68265 8.63442 8.54275L8.00116 8.64203C7.93233 8.52018 7.84973 8.40285 7.75796 8.28552L8.08376 7.73496C7.97822 7.6086 7.85891 7.49578 7.73042 7.38296L7.18895 7.73496C7.07423 7.63567 6.94115 7.56347 6.80808 7.48675L6.90444 6.85496C6.77137 6.78275 6.61535 6.72409 6.45933 6.66993L6.07846 7.19793C5.94079 7.16183 5.78936 7.13927 5.64252 7.1167L5.4865 6.49394C5.4039 6.49394 5.32589 6.48491 5.2433 6.48942C5.15611 6.48942 5.07351 6.49394 4.99091 6.50747L4.86242 7.13475C4.70641 7.14829 4.56874 7.18439 4.41731 7.22501L4.03644 6.71055C3.87583 6.7647 3.71981 6.82788 3.58674 6.90009L3.69687 7.53188C3.56838 7.61311 3.44907 7.69434 3.32059 7.79362L2.77911 7.46419C2.69651 7.53639 2.61391 7.61311 2.54049 7.69434V0.812317H1.52637V10.2847L1.53554 10.5374L2.17798 10.6773C2.19174 10.8307 2.22845 10.9706 2.26975 11.1196L1.75581 11.4986C1.80628 11.6476 1.87053 11.8055 1.94395 11.9499L2.5772 11.8371C2.65062 11.9725 2.7424 12.0853 2.83418 12.2026L2.4946 12.7577L2.84335 13.0962L3.38483 12.7487C3.51332 12.848 3.63263 12.9202 3.7657 12.9969L3.66934 13.6287C3.81618 13.7009 3.9722 13.755 4.12363 13.8137L4.49073 13.2902C4.64216 13.3218 4.77983 13.3489 4.92667 13.3714L5.09645 13.9942C5.16987 13.9942 5.25706 14.0032 5.33966 13.9987C5.42226 13.9987 5.49568 13.9987 5.57828 13.9807L5.72053 13.3624C5.87196 13.3353 6.01421 13.3128 6.16106 13.2586L6.54193 13.7821C6.69795 13.7189 6.84479 13.6558 6.98704 13.5835L6.87691 12.9518C7.00998 12.8705 7.1247 12.7893 7.24401 12.6945L7.79467 13.0194C7.92315 12.9111 8.03329 12.7938 8.13424 12.672L7.79467 12.1259C7.88186 12.0131 7.95987 11.8912 8.03329 11.7694L8.67572 11.8506C8.74914 11.7152 8.80879 11.5618 8.86386 11.4084L8.32697 11.0428C8.37286 10.8894 8.3958 10.7405 8.41875 10.5916L9.04282 10.4336H9.052ZM5.59204 11.986C4.6284 12.1575 3.71522 11.5077 3.54544 10.5464C3.37565 9.58521 4.0135 8.66459 4.97256 8.49311C5.9362 8.32162 6.85855 8.97146 7.02834 9.93269C7.19812 10.8939 6.5511 11.819 5.58746 11.9905" fill="#B61F2A"/>
<path d="M11.3508 10.596H15.3431C15.5129 10.596 15.8479 10.5644 16.3664 10.4968C16.7656 10.4426 17.0593 10.3614 17.2612 10.244C17.5824 10.059 17.8348 9.8063 18.0184 9.4904C18.2019 9.1745 18.2983 8.81348 18.2983 8.41635C18.2983 7.92897 18.1652 7.51831 17.9036 7.19338C17.7522 7.00385 17.5457 6.8459 17.2979 6.72405L17.0364 6.59318L17.275 6.4217C17.3713 6.34949 17.4585 6.27277 17.5319 6.19154C17.8164 5.86662 17.9633 5.46949 17.9633 5.0137C17.9633 4.47216 17.7614 4.01186 17.3667 3.64181C16.9721 3.27627 16.4031 3.09125 15.6781 3.09125H11.3554V10.596H11.3508ZM14.875 8.81799H13.8334V7.5499H14.8704C15.2375 7.5499 15.4945 7.60856 15.6322 7.72138C15.7653 7.8342 15.8295 7.9741 15.8295 8.15912C15.8295 8.3622 15.7653 8.51564 15.6276 8.63297C15.4899 8.75481 15.2375 8.81348 14.875 8.81348V8.81799ZM14.7052 5.94785H13.8334V4.77452H14.7236C15.0723 4.71134 15.2513 4.8016 15.3706 4.92796C15.4762 5.03627 15.5404 5.16262 15.5404 5.34765C15.5404 5.54621 15.4853 5.69513 15.3706 5.79442C15.2559 5.89821 15.031 5.94785 14.7052 5.94785Z" fill="#B61F2A"/>
<path d="M24.2181 10.596H26.8062L23.9887 3.09576H21.3869L18.5693 10.596H21.0978L21.4511 9.39112H23.851L24.2136 10.596H24.2181ZM23.3233 7.60405H22.0063L22.6625 5.45145L23.3233 7.60405Z" fill="#B61F2A"/>
<path d="M40.0033 10.596H42.5914L39.7739 3.09576H37.172L34.3545 10.596H36.8875L37.2408 9.39112H39.6408L40.0033 10.596ZM39.1085 7.60405H37.7915L38.4477 5.45145L39.1085 7.60405Z" fill="#B61F2A"/>
<path d="M48.3092 10.5464H51.3332L48.4974 5.91628L51.2736 3.04614H47.9834L45.7762 5.61844V3.04614H43.312V10.5464H45.7762V8.7052L46.8087 7.62212L48.3092 10.5464Z" fill="#B61F2A"/>
<path d="M27.1181 7.97409L27.1272 8.08691C27.1915 8.84506 27.476 9.48136 27.967 9.97326C28.4259 10.4291 28.9811 10.6637 29.6281 10.6637C30.8488 10.6637 31.7757 9.67542 31.7849 9.66188L32.2346 9.17449L32.0831 9.81983C32.0005 10.1673 31.9134 10.4155 31.8354 10.5915C32.0464 10.5419 32.2392 10.4787 32.409 10.4065C32.8908 10.1944 33.2671 9.87849 33.5378 9.46783C33.8085 9.05716 33.9416 8.60137 33.9416 8.1185C33.9416 7.70332 33.8361 7.31973 33.6342 6.98579C33.4323 6.64732 33.1064 6.36302 32.6613 6.13738C32.2208 5.91174 31.5233 5.69964 30.5184 5.48302C30.0503 5.38374 29.8759 5.298 29.8117 5.23933C29.7291 5.16713 29.6878 5.09041 29.6878 5.00466C29.6878 4.87831 29.7429 4.77 29.8484 4.67974C29.9585 4.58497 30.1375 4.53533 30.3715 4.53533C30.6423 4.53533 30.913 4.59851 31.0874 4.70231C31.2663 4.81061 31.3627 4.95051 31.3719 5.10846V5.20774H33.7213L33.7076 5.09041C33.6158 4.36385 33.3497 3.90354 32.7898 3.50641C32.2851 3.1499 31.5463 2.96939 30.5964 2.96939C29.8163 2.96939 29.2151 3.06416 28.7609 3.26272C28.3066 3.46129 27.9624 3.73657 27.7376 4.08857C27.5081 4.43605 27.3934 4.81513 27.3934 5.20774C27.3934 5.80794 27.6182 6.30886 28.0634 6.69245C28.5039 7.07604 29.2106 7.37389 30.2247 7.60404C30.7983 7.7304 31.1792 7.86578 31.3306 8.00117C31.4728 8.13204 31.5463 8.27193 31.5463 8.42988C31.5463 8.59686 31.4728 8.74578 31.3214 8.87665C31.17 9.00752 30.9405 9.07521 30.6469 9.07521C30.2522 9.07521 29.9448 8.93983 29.7337 8.67357C29.6052 8.51111 29.5134 8.39378 29.4721 8.06435L29.4584 7.97409H27.1089H27.1181Z" fill="#B61F2A"/>
</svg>
