<svg width="52" height="12" viewBox="0 0 52 12" fill="none" xmlns="http://www.w3.org/2000/svg">
<path d="M29.4007 3.7041C28.7114 3.7041 28.1056 4.11283 28.0222 4.40393H33.5344C34.7938 4.40393 37.5906 4.96221 36.5041 8.16232C36.222 8.99574 35.0918 11.5 31.4527 11.5H12.856L14.3438 6.88626C14.3438 6.88626 13.4757 7.71969 12.3991 8.46139C11.4158 9.1373 10.369 9.7534 9.77508 9.7534C9.34999 9.7534 8.59516 8.97381 7.95553 8.19422C7.4351 7.56018 7.01795 6.90221 6.99014 6.86034L5.47452 11.498H0L3.69272 0.5H8.31309C9.65192 0.5 10.8219 1.08021 11.5529 2.47589C13.5016 0.793094 15.1245 0.5 16.5547 0.5H21.6955L19.1429 8.22811H29.7364C30.8389 8.22811 31.1507 7.78947 31.3017 7.52828H24.4268C22.0212 7.52828 21.3876 5.94118 21.7968 4.21053C22.0193 3.26944 22.5099 2.21071 23.2786 1.51486C24.0017 0.856897 25.0128 0.5 26.0258 0.5H51.998L50.9234 3.81575H45.4627L42.9778 11.5H36.5955L39.1937 3.7021H29.3987L29.4007 3.7041Z" fill="black"/>
</svg>
