<svg width="44" height="10" viewBox="0 0 44 10" fill="none" xmlns="http://www.w3.org/2000/svg">
<rect width="44" height="10" rx="1" fill="#AACE39"/>
<path d="M35.618 3.73721C35.5825 3.56513 35.4654 3.40628 35.2667 3.26067C35.0716 3.11506 34.8055 3.00585 34.4791 2.93304C34.1562 2.85693 33.7872 2.82053 33.3792 2.82053C32.9499 2.82053 32.5703 2.85693 32.2475 2.93635C31.921 3.01247 31.6656 3.12498 31.4776 3.2706C31.286 3.4129 31.1724 3.57505 31.137 3.75045C31.1015 3.92584 31.0837 4.22368 31.0837 4.64066V5.35547C31.0837 5.789 31.105 6.09015 31.1405 6.25892C31.176 6.43101 31.2966 6.59316 31.4953 6.73878C31.694 6.88439 31.953 6.99359 32.2794 7.0664C32.6058 7.1392 32.9712 7.17561 33.3828 7.17561C33.7943 7.17561 34.1917 7.13589 34.5181 7.05978C34.841 6.98367 35.0964 6.87115 35.2845 6.72554C35.4725 6.57993 35.5896 6.42108 35.6251 6.24568C35.6641 6.0736 35.6783 5.77576 35.6783 5.35217V4.63735C35.6783 4.20714 35.6641 3.90599 35.6215 3.7339L35.618 3.73721ZM34.3265 5.1867C34.3265 5.41173 34.3194 5.57058 34.3052 5.66324C34.2911 5.7559 34.2449 5.84195 34.1669 5.91806C34.0888 5.99748 33.9859 6.05705 33.8547 6.09676C33.7234 6.13979 33.5673 6.15964 33.3934 6.15964C33.2267 6.15964 33.0812 6.13979 32.9464 6.10007C32.8151 6.06036 32.7087 6.00079 32.6271 5.92468C32.549 5.84526 32.5029 5.75921 32.4852 5.66986C32.4674 5.5772 32.4639 5.41504 32.4639 5.1867V4.80613C32.4639 4.58109 32.4674 4.42224 32.4852 4.32958C32.4958 4.23692 32.5455 4.15088 32.6235 4.07476C32.7016 3.99534 32.8045 3.93908 32.9358 3.89606C33.067 3.85635 33.2196 3.83649 33.3934 3.83649C33.5673 3.83649 33.7127 3.85635 33.844 3.89606C33.9753 3.93577 34.0853 3.99203 34.1669 4.07145C34.2449 4.15088 34.2946 4.23361 34.3088 4.32627C34.323 4.41893 34.3301 4.57778 34.3301 4.80943V5.19001L34.3265 5.1867Z" fill="#373841"/>
<path d="M18.0523 3.73721C18.0168 3.56513 17.8997 3.40628 17.7011 3.26067C17.5024 3.11506 17.2434 3.00585 16.9134 2.93304C16.587 2.85693 16.2216 2.82053 15.8171 2.82053C15.3807 2.82053 15.0046 2.85693 14.6818 2.93635C14.3589 3.01247 14.1035 3.12498 13.9083 3.2706C13.7203 3.4129 13.6103 3.57505 13.5713 3.75045C13.5358 3.92584 13.5181 4.22368 13.5181 4.64066V5.35547C13.5181 5.789 13.5358 6.09015 13.5748 6.25892C13.6103 6.43101 13.7309 6.59316 13.9261 6.73878C14.1248 6.88439 14.3873 6.99359 14.7137 7.0664C15.0401 7.1392 15.4056 7.17561 15.8171 7.17561C16.2287 7.17561 16.626 7.13589 16.9453 7.05978C17.2718 6.98367 17.5272 6.87115 17.7152 6.72554C17.9068 6.57993 18.0204 6.42108 18.0558 6.24568C18.0949 6.0736 18.1091 5.77576 18.1091 5.35217V4.63735C18.1091 4.20714 18.0878 3.90599 18.0487 3.7339L18.0523 3.73721ZM16.7538 5.1867C16.7538 5.41173 16.7467 5.57058 16.7289 5.66324C16.7147 5.7559 16.6722 5.84195 16.5906 5.91806C16.5161 5.99748 16.4096 6.05705 16.2819 6.09676C16.1506 6.13979 15.9945 6.15964 15.8207 6.15964C15.6575 6.15964 15.5049 6.13979 15.3701 6.10007C15.2388 6.06036 15.1324 6.00079 15.0543 5.92468C14.9692 5.84526 14.923 5.75921 14.9053 5.66986C14.8911 5.5772 14.884 5.41504 14.884 5.1867V4.80613C14.884 4.58109 14.8876 4.42224 14.9018 4.32958C14.9195 4.23692 14.9656 4.15088 15.0437 4.07476C15.1217 3.99534 15.2246 3.93908 15.3594 3.89606C15.4872 3.85635 15.6397 3.83649 15.8171 3.83649C15.9803 3.83649 16.1293 3.85635 16.2642 3.89606C16.3954 3.93577 16.5019 3.99203 16.5799 4.07145C16.6615 4.15088 16.7112 4.23361 16.7254 4.32627C16.7431 4.41893 16.7502 4.57778 16.7502 4.80943V5.19001L16.7538 5.1867Z" fill="#373841"/>
<path d="M12.7729 3.73721C12.741 3.56513 12.6239 3.40628 12.4287 3.26067C12.2265 3.11506 11.964 3.00585 11.6411 2.93304C11.3147 2.85693 10.9457 2.82053 10.5377 2.82053C10.1084 2.82053 9.73233 2.85693 9.40592 2.93635C9.08306 3.01247 8.82406 3.12498 8.63602 3.2706C8.44443 3.4129 8.3309 3.57505 8.29187 3.75045C8.25285 3.92584 8.23511 4.22368 8.23511 4.64066V5.35547C8.23511 5.789 8.25639 6.09015 8.29187 6.25892C8.32735 6.43101 8.44798 6.59316 8.64312 6.73878C8.8418 6.88439 9.1008 6.99359 9.42721 7.0664C9.75361 7.1392 10.1226 7.17561 10.5306 7.17561C10.9635 7.17561 11.3395 7.13589 11.6624 7.05978C11.9852 6.98367 12.2442 6.87115 12.4323 6.72554C12.6239 6.57993 12.7339 6.42108 12.7693 6.24568C12.8084 6.0736 12.8297 5.77576 12.8297 5.35217V4.63735C12.8297 4.20714 12.8119 3.90599 12.7658 3.7339L12.7729 3.73721ZM11.4708 5.1867C11.4708 5.41173 11.4637 5.57058 11.4531 5.66324C11.4389 5.7559 11.3927 5.84195 11.3111 5.91806C11.2331 5.99748 11.1302 6.05705 10.9954 6.09676C10.8641 6.13979 10.708 6.15964 10.5377 6.15964C10.3674 6.15964 10.2255 6.13979 10.0907 6.10007C9.95939 6.06036 9.84941 6.00079 9.77135 5.92468C9.68975 5.84526 9.64008 5.75921 9.62589 5.66986C9.6117 5.5772 9.60105 5.41504 9.60105 5.1867V4.80613C9.60105 4.58109 9.60815 4.42224 9.62234 4.32958C9.64008 4.23692 9.6862 4.15088 9.76071 4.07476C9.83876 3.99534 9.94165 3.93908 10.0729 3.89606C10.2077 3.85635 10.3603 3.83649 10.5377 3.83649C10.7151 3.83649 10.8535 3.85635 10.9847 3.89606C11.1196 3.93577 11.226 3.99203 11.304 4.07145C11.3857 4.15088 11.4353 4.23361 11.4531 4.32627C11.4637 4.41893 11.4708 4.57778 11.4708 4.80943V5.19001V5.1867Z" fill="#373841"/>
<path d="M36.3594 7.11273H37.6756V4.80282L39.3751 7.11273H40.6949V2.90326H39.3751V5.23303L37.6686 2.90326H36.3594V7.11273Z" fill="#373841"/>
<path d="M30.3954 2.90326H28.9797V7.11604H30.3954V2.90326Z" fill="#373841"/>
<path d="M24.6904 7.11273H28.2951V6.08022H26.1096V2.90326H24.6904V7.11273Z" fill="#373841"/>
<path d="M18.7974 7.11273H19.9433V3.90268L20.8232 7.11273H21.8628L22.7462 3.82656V7.11273H23.8957V2.90326H21.9018L21.3554 5.01461L20.7984 2.90326H18.7974V7.11273Z" fill="#373841"/>
<path d="M3.30005 3.80009H5.92196L3.30005 6.23907V7.11273H7.66398V6.20928H5.03143L7.64624 3.77361V2.90326H3.30005V3.80009Z" fill="#373841"/>
</svg>
